# xmcd
#
# Track frame offsets: 
#        150
#        11775
#        25668
#        35223
#        43993
#        56643
#        67943
#        80853
#        93230
#        104993
#
# Disc length: 1539 seconds
#
# Revision: 2
# Processed by: cddbd v1.5.2PL0 Copyright (c) Steve Scherf et al.
# Submitted via: ExactAudioCopy v0.99pb3
#
DISCID=8d06010a
DTITLE=Various Artist - Billboard Top Country Hits 1959
DYEAR=1900
DGENRE=
TTITLE0=Johnny Horton - The Battle Of New Orleans
TTITLE1=Johnny Cash - Don't Take Your Guns To Town
TTITLE2=Jim Reeves - Billy Bayou
TTITLE3=Webb Pierce  - I Ain't Never
TTITLE4=George Jones - White Lightning
TTITLE5=Stonewall Jackson - Waterloo
TTITLE6=The Browns - The Three Bells
TTITLE7=Buck Owen - Under Your spell Again
TTITLE8=Faron Young - Country Girl
TTITLE9=Wilma Lee and Stoney Cooper - There's A Big Wheel
EXTD=
EXTT0=
EXTT1=
EXTT2=
EXTT3=
EXTT4=
EXTT5=
EXTT6=
EXTT7=
EXTT8=
EXTT9=
PLAYORDER=
